<svg xmlns="http://www.w3.org/2000/svg" height="20" width="20" class="star_symbol"><path d="M7.292 14.938 10 13.333l2.729 1.605-.708-3.042 2.354-2-3.125-.292L10 6.708 8.75 9.625l-3.104.271 2.375 2ZM10 13.75l-2.854 1.729q-.104.021-.146.011-.042-.011-.083-.032-.063-.02-.073-.114-.011-.094.031-.136l.75-3.166-2.521-2.125q-.042-.042-.062-.105-.021-.062-.021-.124.021-.042.083-.084.063-.042.125-.042L8.5 9.271l1.333-3.042q.021-.062.063-.094.042-.031.104-.031.083 0 .115.031.031.032.073.094l1.333 3.063 3.271.27q.062 0 .125.053.062.052.062.093.021.063-.01.115-.031.052-.094.094l-2.479 2.125.75 3.166q.042.042.021.136t-.063.114q-.062.021-.104.032-.042.01-.125-.011Zm0-2.708Z"/></svg>